<svg width="44" height="56" viewBox="0 0 44 56" fill="none" xmlns="http://www.w3.org/2000/svg">
<path d="M36.1941 0.646298C33.4148 -0.812897 29.1984 1.22124 24.2946 6.37757C19.984 5.87211 15.6213 6.67923 11.7768 8.69338C7.93235 10.7075 4.78518 13.8349 2.74687 17.6666C0.708557 21.4983 -0.12602 25.8559 0.352276 30.1696C0.830573 34.4833 2.59948 38.5522 5.42767 41.8443C3.8886 48.8145 4.5717 53.4533 7.36201 54.9167C9.06809 55.8129 11.2773 55.4215 13.8574 53.8008C15.489 52.7344 17.0005 51.4944 18.3653 50.1027C18.662 49.8084 18.9616 49.5011 19.2615 49.1854C23.2998 49.6591 27.3896 48.9813 31.0592 47.2304C34.7288 45.4794 37.8285 42.7266 40.0007 39.2896C42.173 35.8526 43.3292 31.8714 43.3359 27.8055C43.3427 23.7396 42.1997 19.7547 40.0389 16.3105C39.4674 15.3976 38.8289 14.5285 38.1287 13.7102C39.0424 9.53809 39.2063 6.03624 38.4698 3.67851C38.0247 2.22542 37.2577 1.20708 36.1941 0.646298ZM11.3077 11.1091C15.1646 8.69281 19.7386 7.68516 24.2539 8.2571C28.7691 8.82904 32.9474 10.9454 36.0801 14.247C34.827 19.3769 32.4289 25.5305 29.1705 31.6626C25.7065 38.1813 21.9621 43.4562 18.5509 47.1906C14.6138 46.5332 10.9696 44.6946 8.10136 41.9186C5.23316 39.1426 3.27652 35.5603 2.49089 31.6468C1.70526 27.7333 2.12777 23.6734 3.70238 20.0056C5.27699 16.3377 7.92931 13.2351 11.3077 11.1091ZM8.2362 53.2549C6.48262 52.3359 6.03946 48.6563 7.01397 43.4884C9.80896 46.1159 13.2543 47.9501 16.9946 48.802C13.2128 52.5367 9.98133 54.1736 8.2362 53.2549ZM32.2525 44.4514C28.8467 46.5955 24.8631 47.6386 20.8436 47.4388C24.3061 43.4424 27.7737 38.2777 30.8216 32.5463C33.8965 26.7564 36.2008 21.0132 37.5524 16.018C37.8636 16.4342 38.1655 16.8618 38.4472 17.3103C41.218 21.7328 42.1218 27.0736 40.9605 32.1615C39.7993 37.2493 36.6677 41.6691 32.2525 44.4514ZM36.6796 4.23015C37.2542 6.08342 37.1772 8.80275 36.5558 12.0744C33.7512 9.44281 30.2941 7.60866 26.5426 6.76174C30.2782 3.08106 33.5716 1.38865 35.3219 2.30686C35.9271 2.62695 36.385 3.2721 36.6796 4.23015Z" fill="#B2CBC3"/>
</svg>
